<svg xmlns="http://www.w3.org/2000/svg" xmlns:xlink="http://www.w3.org/1999/xlink" width="237" height="239" viewBox="0 0 237 239">
  <defs>
    <linearGradient id="linear-gradient" x1="0.5" y1="1" x2="0.5" gradientUnits="objectBoundingBox">
      <stop offset="0" stop-color="#ffe6c5"/>
      <stop offset="1" stop-color="#f9bd67"/>
    </linearGradient>
    <linearGradient id="linear-gradient-2" x1="0.5" y1="1" x2="0.5" gradientUnits="objectBoundingBox">
      <stop offset="0" stop-color="#3ebbc8"/>
      <stop offset="1" stop-color="#007f8b"/>
    </linearGradient>
    <linearGradient id="linear-gradient-3" y1="0" y2="1" xlink:href="#linear-gradient-2"/>
  </defs>
  <g id="Group_80" data-name="Group 80" transform="translate(1278 -5357)">
    <rect id="Rectangle_673" data-name="Rectangle 673" width="119" height="237" transform="translate(-1278 5596) rotate(-90)" fill="url(#linear-gradient)"/>
    <rect id="Rectangle_674" data-name="Rectangle 674" width="120" height="237" transform="translate(-1278 5477) rotate(-90)" fill="url(#linear-gradient-2)"/>
    <path id="Rectangle_677" data-name="Rectangle 677" d="M96.02,0H98a0,0,0,0,1,0,0V194a0,0,0,0,1,0,0h-.02A97.98,97.98,0,0,1,0,96.02v0A96.02,96.02,0,0,1,96.02,0Z" transform="translate(-1256 5575) rotate(-90)" fill="#fff" opacity="0.5"/>
    <path id="Rectangle_678" data-name="Rectangle 678" d="M0,0H1.02A97.98,97.98,0,0,1,99,97.98v0A96.02,96.02,0,0,1,2.98,194H0a0,0,0,0,1,0,0V0A0,0,0,0,1,0,0Z" transform="translate(-1256 5477) rotate(-90)" fill="url(#linear-gradient-3)"/>
  </g>
</svg>
