<svg xmlns="http://www.w3.org/2000/svg" xmlns:xlink="http://www.w3.org/1999/xlink" width="223" height="219" viewBox="0 0 223 219">
  <defs>
    <linearGradient id="linear-gradient" x1="0.5" x2="0.5" y2="1" gradientUnits="objectBoundingBox">
      <stop offset="0" stop-color="#ffe6c5"/>
      <stop offset="1" stop-color="#f9bd67"/>
    </linearGradient>
  </defs>
  <g id="Group_80" data-name="Group 80" transform="translate(943 -2941)">
    <path id="Rectangle_671" data-name="Rectangle 671" d="M0,0H223a0,0,0,0,1,0,0V219a0,0,0,0,1,0,0H200A200,200,0,0,1,0,19V0A0,0,0,0,1,0,0Z" transform="translate(-943 2941)" fill="#fc858c"/>
    <path id="Rectangle_670" data-name="Rectangle 670" d="M0,0H171a0,0,0,0,1,0,0V168a0,0,0,0,1,0,0h-3A168,168,0,0,1,0,0V0A0,0,0,0,1,0,0Z" transform="translate(-891 2941)" fill="url(#linear-gradient)"/>
    <path id="Rectangle_669" data-name="Rectangle 669" d="M0,0H109a0,0,0,0,1,0,0V107a0,0,0,0,1,0,0h-2A107,107,0,0,1,0,0V0A0,0,0,0,1,0,0Z" transform="translate(-829 2941)" fill="#414141"/>
  </g>
</svg>
