<svg xmlns="http://www.w3.org/2000/svg" xmlns:xlink="http://www.w3.org/1999/xlink" width="124" height="122" viewBox="0 0 124 122">
  <defs>
    <linearGradient id="linear-gradient" x1="0.5" x2="0.5" y2="1" gradientUnits="objectBoundingBox">
      <stop offset="0" stop-color="#ffc5c9"/>
      <stop offset="1" stop-color="#fb626b"/>
    </linearGradient>
  </defs>
  <g id="Group_81" data-name="Group 81" transform="translate(979 -3271)">
    <path id="Rectangle_80" data-name="Rectangle 80" d="M0,0H2A122,122,0,0,1,124,122v0a0,0,0,0,1,0,0H0a0,0,0,0,1,0,0V0A0,0,0,0,1,0,0Z" transform="translate(-979 3271)" fill="#414141"/>
    <path id="Rectangle_81" data-name="Rectangle 81" d="M0,0H1A78,78,0,0,1,79,78v0a0,0,0,0,1,0,0H0a0,0,0,0,1,0,0V0A0,0,0,0,1,0,0Z" transform="translate(-979 3315)" fill="url(#linear-gradient)"/>
  </g>
</svg>
