<svg xmlns="http://www.w3.org/2000/svg" width="24.037" height="32.062" viewBox="0 0 24.037 32.062">
  <g id="Report_Data_Chart" data-name="Report Data Chart" transform="translate(-6 0.021)">
    <path id="Path_1390" data-name="Path 1390" d="M30.036,5.962c0-.327.214,0-4.834-5.742-.294-.327.935-.227-18.534-.227A.668.668,0,0,0,6,.66V31.373a.668.668,0,0,0,.668.668h22.7a.668.668,0,0,0,.668-.668ZM27.9,5.334H25.362v-2.9C27.172,4.506,26.7,3.945,27.9,5.334ZM7.335,30.705V1.328H24.027V6a.668.668,0,0,0,.668.668H28.7V30.705Z" transform="translate(0 0)" fill="#fff"/>
    <path id="Path_1391" data-name="Path 1391" d="M27.692,32.689H24.353V28.015a.668.668,0,0,0-.668-.668h-2V26.012a.668.668,0,0,0-.668-.668H18.344a.668.668,0,0,0-.668.668v2.671h-2a.668.668,0,0,0-.668.668v3.338H12.335V18.668a.668.668,0,1,0-1.335,0V33.356a.668.668,0,0,0,.668.668H27.692a.668.668,0,0,0,0-1.335Zm-11.35-2.671h1.335v2.671H16.341Zm2.671-3.338h1.335v6.009H19.012Zm2.671,6.009V28.683h1.335v4.006Z" transform="translate(-1.662 -5.989)" fill="#fff"/>
    <path id="Path_1392" data-name="Path 1392" d="M15.666,24c.374,0,.194.087,4.006-3.732L21.2,21.8a.668.668,0,0,0,.948,0l3.532-3.539v1.062a.668.668,0,1,0,1.335,0c0-3.919.628-3.338-3.338-3.338a.668.668,0,0,0,0,1.335h1.062l-3.065,3.065-1.529-1.536a.668.668,0,0,0-.948,0l-4.006,4.006A.668.668,0,0,0,15.666,24Z" transform="translate(-2.989 -5.309)" fill="#fff"/>
  </g>
</svg>
