<svg xmlns="http://www.w3.org/2000/svg" width="30.35" height="31.67" viewBox="0 0 30.35 31.67">
  <g id="Search_Engine_Results_Page" data-name="Search Engine Results Page" transform="translate(-1)">
    <path id="Path_1386" data-name="Path 1386" d="M30.769,28.283l-3.156-3.149a.66.66,0,0,0-.931,0l-.469.469-.957-.964a6.6,6.6,0,0,0-1.809-9.9V2.641A2.641,2.641,0,0,0,20.806,0H3.641A2.641,2.641,0,0,0,1,2.641V22.447a2.641,2.641,0,0,0,2.641,2.641h11.8a6.6,6.6,0,0,0,8.88.489l.964.957L24.813,27a.66.66,0,0,0,0,.931c3.578,3.578,3.149,3.09,3.149,3.156a1.984,1.984,0,0,0,2.806-2.806ZM22.126,2.641v1.32H7.6V1.32h13.2A1.32,1.32,0,0,1,22.126,2.641Zm-19.806,0a1.32,1.32,0,0,1,1.32-1.32H6.282V3.961H2.32Zm1.32,21.126a1.32,1.32,0,0,1-1.32-1.32V5.282H22.126v8.886a6.6,6.6,0,0,0-8.279,4.318c-8.087,0-8.226-.191-8.959.574a1.981,1.981,0,0,0,1.393,3.387h7.566a6.76,6.76,0,0,0,.588,1.32Zm2.641-2.641A.66.66,0,0,1,5.826,20c.251-.257.456-.191,1.776-.191v1.32Zm2.641-1.32h4.654a6.3,6.3,0,0,0,0,1.32H8.922Zm5.942.66a5.282,5.282,0,1,1,5.282,5.282A5.282,5.282,0,0,1,14.864,20.466ZM28.9,30.151l-2.687-2.68.937-.937,2.68,2.687a.66.66,0,0,1-.931.931Z" fill="#fff"/>
    <path id="Path_1387" data-name="Path 1387" d="M6.66,12.32h9.9a.66.66,0,0,0,0-1.32H6.66a.66.66,0,0,0,0,1.32Z" transform="translate(-1.699 -3.738)" fill="#fff"/>
    <path id="Path_1388" data-name="Path 1388" d="M6.66,16.32h9.9a.66.66,0,0,0,0-1.32H6.66a.66.66,0,0,0,0,1.32Z" transform="translate(-1.699 -5.097)" fill="#fff"/>
    <path id="Path_1389" data-name="Path 1389" d="M6.66,20.32h6.6a.66.66,0,1,0,0-1.32H6.66a.66.66,0,0,0,0,1.32Z" transform="translate(-1.699 -6.456)" fill="#fff"/>
  </g>
</svg>
